<svg width="374" height="154" viewBox="0 0 374 154" fill="none" xmlns="http://www.w3.org/2000/svg">
<path d="M68.329 19.8544C63.9462 25.0561 56.9337 29.1589 49.9212 28.5728C49.0447 21.5395 52.4779 14.0666 56.4954 9.451C60.8783 4.10276 68.5482 0.293054 74.7572 0C75.4876 7.32636 72.6388 14.5062 68.329 19.8544ZM74.6841 29.9648C64.5306 29.3787 55.838 35.7526 51.0169 35.7526C46.1228 35.7526 38.745 30.2579 30.7099 30.4044C20.2642 30.5509 10.549 36.4853 5.21653 45.9363C-5.7405 64.8382 2.3677 92.8249 12.9595 108.21C18.1458 115.83 24.3548 124.182 32.5361 123.889C40.279 123.596 43.347 118.833 52.697 118.833C62.12 118.833 64.8228 123.889 73.004 123.742C81.4775 123.596 86.8099 116.123 91.9962 108.503C97.913 99.8582 100.324 91.4329 100.47 90.9933C100.324 90.8468 84.1072 84.6194 83.9611 65.8639C83.815 50.1855 96.7443 42.7127 97.3286 42.2731C90.024 31.4301 78.6286 30.2579 74.6841 29.9648ZM133.341 8.71836V122.936H151.018V83.8868H175.489C197.841 83.8868 213.546 68.5014 213.546 46.2293C213.546 23.9572 198.133 8.71836 176.073 8.71836H133.341ZM151.018 23.6641H171.398C186.738 23.6641 195.504 31.8696 195.504 46.3026C195.504 60.7355 186.738 69.0143 171.325 69.0143H151.018V23.6641ZM245.833 123.815C256.936 123.815 267.236 118.174 271.911 109.236H272.276V122.936H288.638V66.0837C288.638 49.5994 275.49 38.9762 255.256 38.9762C236.483 38.9762 222.604 49.746 222.093 64.5452H238.017C239.332 57.5119 245.833 52.8963 254.745 52.8963C265.556 52.8963 271.618 57.9515 271.618 67.256V73.5566L249.558 74.8754C229.032 76.1208 217.929 84.5461 217.929 99.1989C217.929 113.998 229.397 123.815 245.833 123.815ZM250.581 110.262C241.158 110.262 235.168 105.719 235.168 98.7593C235.168 91.5795 240.939 87.4034 251.969 86.7441L271.618 85.4986V91.9458C271.618 102.642 262.561 110.262 250.581 110.262ZM310.479 154C327.718 154 335.827 147.406 342.912 127.405L373.957 40.0752H355.988L335.169 107.551H334.804L313.986 40.0752H295.505L325.454 123.229L323.847 128.285C321.144 136.856 316.761 140.153 308.945 140.153C307.558 140.153 304.855 140.007 303.759 139.86V153.56C304.782 153.853 309.165 154 310.479 154Z" fill="white"/>
</svg>
