<svg width="88" height="36" viewBox="0 0 88 36" fill="none" xmlns="http://www.w3.org/2000/svg">
<path d="M16.0204 4.64129C14.9928 5.85728 13.3487 6.81637 11.7045 6.67935C11.499 5.0352 12.3039 3.2883 13.2459 2.20932C14.2735 0.959087 16.0718 0.0685062 17.5275 0C17.6988 1.71265 17.0309 3.39106 16.0204 4.64129ZM17.5104 7.00476C15.1298 6.86775 13.0918 8.35775 11.9614 8.35775C10.8139 8.35775 9.08415 7.07326 7.20023 7.10752C4.75113 7.14177 2.4733 8.52902 1.22307 10.7383C-1.34592 15.157 0.555131 21.6993 3.03848 25.2959C4.25446 27.0771 5.71022 29.0295 7.62839 28.961C9.44381 28.8925 10.1631 27.7793 12.3553 27.7793C14.5646 27.7793 15.1983 28.961 17.1165 28.9267C19.1032 28.8925 20.3534 27.1456 21.5694 25.3644C22.9567 23.3435 23.5218 21.3739 23.5561 21.2712C23.5218 21.2369 19.7197 19.7812 19.6855 15.3968C19.6512 11.7317 22.6826 9.98478 22.8196 9.88202C21.107 7.34729 18.4352 7.07326 17.5104 7.00476ZM31.263 2.03806V28.7383H35.4077V19.6099H41.145C46.3858 19.6099 50.068 16.0133 50.068 10.8069C50.068 5.60038 46.4543 2.03806 41.2821 2.03806H31.263ZM35.4077 5.53187H40.186C43.7825 5.53187 45.8377 7.45005 45.8377 10.824C45.8377 14.1979 43.7825 16.1332 40.1688 16.1332H35.4077V5.53187ZM57.6379 28.9439C60.2411 28.9439 62.656 27.6251 63.7521 25.5357H63.8377V28.7383H67.6741V15.4481C67.6741 11.5947 64.5913 9.11132 59.8472 9.11132C55.4457 9.11132 52.1917 11.6289 52.0718 15.0885H55.8054C56.1136 13.4443 57.6379 12.3654 59.7273 12.3654C62.2621 12.3654 63.6836 13.5471 63.6836 15.7222V17.1951L58.5114 17.5033C53.6988 17.7945 51.0956 19.764 51.0956 23.1893C51.0956 26.6489 53.7844 28.9439 57.6379 28.9439ZM58.7511 25.7755C56.5418 25.7755 55.1374 24.7136 55.1374 23.0866C55.1374 21.4082 56.4904 20.432 59.0765 20.2778L63.6836 19.9867V21.4938C63.6836 23.9943 61.5599 25.7755 58.7511 25.7755ZM72.7949 36C76.8368 36 78.7378 34.4586 80.3991 29.7831L87.6779 9.36822H83.4647L78.5837 25.1418H78.498L73.617 9.36822H69.284L76.3058 28.8069L75.9291 29.9886C75.2954 31.9924 74.2678 32.7631 72.4352 32.7631C72.1098 32.7631 71.4762 32.7288 71.2193 32.6946V35.8972C71.459 35.9657 72.4866 36 72.7949 36Z" fill="black"/>
</svg>
