<svg width="174" height="133" viewBox="0 0 174 133" fill="none" xmlns="http://www.w3.org/2000/svg">
<g opacity="0.05">
<path d="M86.9887 42.9353C86.3165 43.5784 86.3165 44.645 86.9887 45.3038L91.2461 49.4918L86.5086 54.1346L73.1601 40.959C67.2862 35.1554 58.7074 33.132 50.7688 35.6417C49.8725 35.924 49.3763 36.8808 49.6644 37.7592C49.9525 38.6376 50.9288 39.1238 51.8251 38.8258C58.5313 36.6926 65.7657 38.418 70.7273 43.3118L84.0918 56.5031L79.3542 61.1459L65.9738 47.9389C61.3803 43.3902 53.8578 43.3588 49.2323 47.8762C44.5907 52.3779 44.5747 59.7343 49.1682 64.283L57.7951 72.8158C58.4673 73.4589 59.5557 73.4746 60.2119 72.8158C60.8841 72.157 60.8841 71.0904 60.2119 70.4473L51.585 61.9145C48.32 58.6834 48.336 53.4602 51.633 50.2604C54.9141 47.0606 60.2599 47.0762 63.525 50.3074L76.9054 63.5301L72.1038 68.2357L72.1518 68.173L58.7394 54.9346C58.0832 54.2758 56.9948 54.2758 56.3226 54.9346C55.6664 55.5777 55.6504 56.66 56.3226 57.3031L69.751 70.5571L69.687 70.6199L63.637 76.5332L62.9968 77.1763C61.2042 78.9331 59.2196 80.3604 57.1229 81.5211L44.3827 68.9258C38.1086 62.7302 37.2123 53.021 42.2539 45.8528C42.7981 45.0842 42.5901 44.0333 41.8058 43.5C41.0215 42.9824 39.9492 43.1706 39.421 43.9392C33.451 52.4563 34.5074 63.9536 41.9498 71.2943L53.8258 83.0269C53.8258 83.0269 53.7778 83.0583 53.7457 83.0583C51.2649 83.9837 48.6721 84.5484 46.0632 84.7209C46.0312 84.6582 45.9672 84.5954 45.9192 84.5327L37.1963 75.9058C26.0566 64.9104 26.1366 47.0919 37.3563 36.175C48.576 25.2737 66.758 25.3364 77.8977 36.3318C78.5699 36.9906 79.6583 37.0063 80.3305 36.3632C81.0027 35.7044 81.0187 34.6535 80.3465 33.9947H80.3305C67.8624 21.6661 47.5037 21.572 34.9395 33.8065C22.3754 46.0253 22.3114 65.977 34.7635 78.29L41.1656 84.6268C41.1656 84.6268 41.0696 84.6268 41.0375 84.6268C37.5324 84.219 34.0913 83.121 30.9382 81.3329C29.5938 80.58 28.2173 79.7801 27.0649 78.6664C26.8089 78.4311 26.5688 78.1802 26.3127 77.9292L2.32077 54.3856C1.92063 53.9464 1.55251 53.4602 1.23241 52.9425C0.448148 51.6407 0 50.1349 0 48.5193C0 48.2683 0 48.0174 0.0320106 47.7664C0.0640211 47.3899 0.128042 47.0292 0.208069 46.6684C0.240079 46.5273 0.27209 46.3861 0.3041 46.2606C0.3041 46.1979 0.336111 46.1508 0.352116 46.0881C0.688227 45.0058 1.23241 43.9862 1.98466 43.0608C2.17672 42.8255 2.40079 42.6059 2.62487 42.3707L43.2303 2.59279C46.6074 -0.716805 52.0012 -0.857973 55.5543 2.16929L97.5522 43.3275L93.6629 47.139L89.4215 42.9667C88.7653 42.3079 87.6769 42.3079 87.0047 42.9667L86.9887 42.9353Z" fill="url(#paint0_linear_214_2100)"/>
<path d="M51.8572 98.5551C49.8406 98.5551 47.8559 98.116 45.9513 97.269L41.1337 92.5634L39.9493 91.4184L37.5005 89.0185L26.2968 77.9133C26.5529 78.1643 26.7929 78.4152 27.049 78.6505C28.1854 79.7642 29.5778 80.5643 30.9382 81.3329C34.0752 83.121 37.5165 84.2188 41.0216 84.6266C42.6382 84.8305 44.3027 84.8619 45.9193 84.7521C48.5761 84.5953 51.217 84.0306 53.7298 83.0895C54.8502 82.666 55.9546 82.164 57.0429 81.5837C59.1716 80.423 61.1723 78.9799 62.9809 77.1918L79.8985 60.6125L83.9958 56.5813L110.629 30.481L121.352 19.0935C121.352 19.0935 121.4 19.0465 121.416 19.0308L121.992 18.4818C125.273 15.2663 130.571 15.2663 133.852 18.4818L139.918 24.4265C137.325 24.301 134.701 25.2265 132.732 27.1087L112.869 46.2604L112.661 46.4957L78.0899 79.8426L78.0419 79.7956L65.3017 92.0614L65.2216 92.1555C65.2216 92.1555 64.9175 92.5006 64.4534 92.9398C63.445 93.8966 61.3484 95.7004 58.5474 97.0023C57.283 97.5983 55.9866 98.0218 54.7062 98.2728C53.9539 98.414 53.1697 98.5238 52.4174 98.5551H51.8412H51.8572Z" fill="url(#paint1_linear_214_2100)"/>
<path d="M171.529 67.0277L170.888 67.6551L113.173 125.095C112.229 126.02 111.237 126.851 110.196 127.604C110.164 127.636 110.116 127.667 110.084 127.698C109.94 127.792 109.796 127.902 109.652 127.996C109.636 128.012 109.62 128.028 109.604 128.043C105.139 131.165 99.681 133 93.775 133C86.4926 133 79.8824 130.208 74.9848 125.644C74.9848 125.644 74.9795 125.638 74.9688 125.628C74.7447 125.44 74.5207 125.251 74.3126 125.048L49.4884 100.72C50.2727 100.845 51.0569 100.892 51.8412 100.892H52.4974C53.4097 100.845 54.322 100.751 55.2183 100.563C56.6748 100.265 58.1633 99.7786 59.6037 99.1041C62.7248 97.6611 65.0615 95.6533 66.1659 94.5867C66.5981 94.1632 66.9182 93.8182 67.0622 93.6613L78.0578 83.0738L78.1059 83.1208L115.894 46.6839L116.102 46.4486L134.46 28.7399C136.925 26.3715 140.783 26.0578 143.599 27.9557L171.545 55.3422C171.753 55.5461 171.961 55.7657 172.137 55.9853C174.81 59.2164 174.602 63.9848 171.545 66.9807L171.529 67.0277Z" fill="url(#paint2_linear_214_2100)"/>
</g>
<defs>
<linearGradient id="paint0_linear_214_2100" x1="87" y1="0" x2="87" y2="133" gradientUnits="userSpaceOnUse">
<stop stop-color="#F31212"/>
<stop offset="0.773375" stop-color="#F31212" stop-opacity="0"/>
</linearGradient>
<linearGradient id="paint1_linear_214_2100" x1="87" y1="0" x2="87" y2="133" gradientUnits="userSpaceOnUse">
<stop stop-color="#F31212"/>
<stop offset="0.773375" stop-color="#F31212" stop-opacity="0"/>
</linearGradient>
<linearGradient id="paint2_linear_214_2100" x1="87" y1="0" x2="87" y2="133" gradientUnits="userSpaceOnUse">
<stop stop-color="#F31212"/>
<stop offset="0.773375" stop-color="#F31212" stop-opacity="0"/>
</linearGradient>
</defs>
</svg>
