<svg width="357" height="275" viewBox="0 0 357 275" fill="none" xmlns="http://www.w3.org/2000/svg">
<g opacity="0.05">
<path d="M178.477 88.7761C177.098 90.1058 177.098 92.3111 178.477 93.6733L187.212 102.333L177.492 111.932L150.104 84.6896C138.053 72.6898 120.451 68.5061 104.163 73.6952C102.325 74.279 101.307 76.2573 101.898 78.0735C102.489 79.8897 104.492 80.8951 106.331 80.2789C120.09 75.8681 134.933 79.4357 145.113 89.5544L172.533 116.83L162.813 126.43L135.36 99.1219C125.935 89.7166 110.501 89.6517 101.011 98.9921C91.4879 108.3 91.455 123.511 100.88 132.916L118.58 150.559C119.959 151.889 122.192 151.921 123.538 150.559C124.917 149.197 124.917 146.991 123.538 145.662L105.838 128.019C99.1392 121.338 99.172 110.538 105.937 103.922C112.669 97.3057 123.637 97.3381 130.336 104.019L157.789 131.359L147.937 141.089L148.036 140.959L120.517 113.587C119.171 112.224 116.938 112.224 115.558 113.587C114.212 114.916 114.179 117.154 115.558 118.484L143.11 145.889L142.979 146.018L130.566 158.245L129.252 159.575C125.574 163.207 121.502 166.159 117.2 168.559L91.061 142.516C78.1883 129.705 76.3493 109.63 86.6934 94.8084C87.81 93.2192 87.3831 91.0463 85.774 89.9436C84.1649 88.8734 81.9647 89.2625 80.881 90.8517C68.6323 108.462 70.7996 132.235 86.0695 147.413L110.436 171.672C110.436 171.672 110.337 171.737 110.271 171.737C105.181 173.651 99.8617 174.818 94.509 175.175C94.4433 175.045 94.312 174.915 94.2135 174.786L76.3165 156.948C53.461 134.213 53.6252 97.3705 76.6449 74.7979C99.6646 52.2577 136.969 52.3874 159.825 75.1222C161.204 76.4843 163.437 76.5168 164.816 75.1871C166.195 73.8249 166.228 71.652 164.849 70.2898H164.816C139.235 44.7983 97.4645 44.6037 71.6863 69.9007C45.9081 95.1652 45.7768 136.419 71.3251 161.878L84.4604 174.98C84.4604 174.98 84.2634 174.98 84.1977 174.98C77.0061 174.137 69.9459 171.867 63.4767 168.17C60.7183 166.613 57.8941 164.959 55.5298 162.656C55.0044 162.17 54.5118 161.651 53.9864 161.132L4.76157 112.451C3.94061 111.543 3.18533 110.538 2.52856 109.468C0.919476 106.776 0 103.662 0 100.322C0 99.8029 0 99.284 0.0656769 98.7651C0.131354 97.9867 0.262707 97.2408 0.4269 96.4949C0.492576 96.203 0.558253 95.9111 0.62393 95.6516C0.62393 95.5219 0.689607 95.4246 0.722445 95.2949C1.41205 93.0571 2.52856 90.949 4.07197 89.0355C4.46603 88.549 4.92576 88.095 5.3855 87.6085L88.6966 5.36103C95.6255 -1.48212 106.692 -1.774 113.982 4.48537L200.15 89.5869L192.17 97.4678L183.468 88.8409C182.122 87.4788 179.889 87.4788 178.51 88.8409L178.477 88.7761Z" fill="url(#paint0_linear_214_2060)"/>
<path d="M106.397 203.779C102.259 203.779 98.1871 202.871 94.2793 201.12L84.395 191.39L81.9649 189.023L76.9406 184.061L53.9537 161.099C54.4792 161.618 54.9717 162.137 55.4972 162.623C57.8287 164.926 60.6854 166.58 63.4767 168.17C69.913 171.867 76.9735 174.137 84.1651 174.98C87.4818 175.401 90.897 175.466 94.2137 175.239C99.6648 174.915 105.083 173.747 110.239 171.802C112.538 170.926 114.803 169.888 117.036 168.688C121.404 166.288 125.509 163.304 129.219 159.607L163.93 125.326L172.336 116.991L226.979 63.0247L248.981 39.4791C248.981 39.4791 249.08 39.3818 249.113 39.3493L250.295 38.2142C257.027 31.5657 267.896 31.5657 274.628 38.2142L287.074 50.5059C281.754 50.2465 276.368 52.16 272.329 56.0518L231.577 95.6512L231.15 96.1377L160.219 165.088L160.12 164.991L133.981 190.353L133.817 190.547C133.817 190.547 133.193 191.261 132.241 192.169C130.172 194.147 125.87 197.877 120.123 200.569C117.529 201.801 114.869 202.677 112.242 203.196C110.699 203.488 109.089 203.715 107.546 203.779H106.364H106.397Z" fill="url(#paint1_linear_214_2060)"/>
<path d="M351.93 138.591L350.616 139.888L232.201 258.654C230.263 260.568 228.227 262.287 226.093 263.843C226.027 263.908 225.929 263.973 225.863 264.038C225.567 264.233 225.272 264.46 224.976 264.654C224.943 264.687 224.911 264.719 224.878 264.751C215.716 271.205 204.518 275 192.4 275C177.459 275 163.897 269.227 153.848 259.789C153.848 259.789 153.837 259.779 153.815 259.757C153.356 259.368 152.896 258.979 152.469 258.557L101.537 208.255C103.146 208.514 104.755 208.612 106.364 208.612H107.71C109.582 208.514 111.454 208.32 113.293 207.931C116.281 207.314 119.335 206.309 122.29 204.914C128.694 201.931 133.488 197.779 135.754 195.574C136.641 194.698 137.298 193.985 137.593 193.661L160.153 171.769L160.252 171.866L237.783 96.5269L238.21 96.0404L275.876 59.4247C280.933 54.5275 288.847 53.8788 294.627 57.8031L351.962 114.429C352.389 114.851 352.816 115.305 353.177 115.759C358.661 122.44 358.235 132.299 351.962 138.494L351.93 138.591Z" fill="url(#paint2_linear_214_2060)"/>
</g>
<defs>
<linearGradient id="paint0_linear_214_2060" x1="178.5" y1="0" x2="178.5" y2="275" gradientUnits="userSpaceOnUse">
<stop stop-color="#124EF3"/>
<stop offset="1" stop-color="#124EF3" stop-opacity="0"/>
</linearGradient>
<linearGradient id="paint1_linear_214_2060" x1="178.5" y1="0" x2="178.5" y2="275" gradientUnits="userSpaceOnUse">
<stop stop-color="#124EF3"/>
<stop offset="1" stop-color="#124EF3" stop-opacity="0"/>
</linearGradient>
<linearGradient id="paint2_linear_214_2060" x1="178.5" y1="0" x2="178.5" y2="275" gradientUnits="userSpaceOnUse">
<stop stop-color="#124EF3"/>
<stop offset="1" stop-color="#124EF3" stop-opacity="0"/>
</linearGradient>
</defs>
</svg>
