<svg width="461" height="355" viewBox="0 0 461 355" fill="none" xmlns="http://www.w3.org/2000/svg">
<g opacity="0.05">
<path d="M230.47 114.602C228.689 116.318 228.689 119.165 230.47 120.924L241.75 132.102L229.198 144.495L193.832 109.327C178.27 93.8359 155.541 88.4351 134.508 95.1338C132.133 95.8874 130.819 98.4413 131.582 100.786C132.345 103.13 134.932 104.428 137.307 103.633C155.074 97.9389 174.241 102.544 187.387 115.607L222.795 150.817L210.243 163.209L174.793 127.957C162.622 115.816 142.692 115.732 130.437 127.79C118.14 139.806 118.097 159.441 130.268 171.582L153.124 194.358C154.905 196.074 157.788 196.116 159.527 194.358C161.308 192.6 161.308 189.753 159.527 188.036L136.671 165.261C128.02 156.636 128.062 142.694 136.798 134.154C145.491 125.613 159.654 125.655 168.305 134.279L203.755 169.573L191.034 182.133L191.161 181.965L155.626 146.63C153.887 144.871 151.004 144.871 149.223 146.63C147.484 148.346 147.442 151.235 149.223 152.952L184.8 188.329L184.631 188.497L168.602 204.28L166.905 205.997C162.156 210.686 156.898 214.496 151.343 217.594L117.589 183.975C100.966 167.438 98.5912 141.522 111.949 122.389C113.39 120.338 112.839 117.532 110.761 116.109C108.684 114.727 105.842 115.23 104.443 117.281C88.626 140.015 91.4248 170.703 111.143 190.297L142.607 221.613C142.607 221.613 142.48 221.697 142.395 221.697C135.823 224.167 128.953 225.674 122.041 226.135C121.956 225.967 121.787 225.8 121.659 225.632L98.5488 202.606C69.035 173.257 69.247 125.697 98.9728 96.5573C128.699 67.4599 176.87 67.6274 206.384 96.9759C208.165 98.7343 211.049 98.7762 212.83 97.0597C214.611 95.3013 214.653 92.4962 212.872 90.7378H212.83C179.796 57.8305 125.857 57.5793 92.5697 90.2354C59.2819 122.85 59.1123 176.104 92.1032 208.969L109.065 225.884C109.065 225.884 108.811 225.884 108.726 225.884C99.4393 224.795 90.3222 221.864 81.9685 217.092C78.4065 215.082 74.7597 212.947 71.7065 209.974C71.0281 209.346 70.392 208.676 69.7135 208.006L6.1487 145.165C5.08858 143.992 4.11327 142.694 3.26517 141.313C1.18733 137.838 0 133.819 0 129.506C0 128.837 0 128.167 0.0848096 127.497C0.169619 126.492 0.339238 125.529 0.551262 124.566C0.636072 124.189 0.720882 123.812 0.805691 123.478C0.805691 123.31 0.890501 123.185 0.932906 123.017C1.82341 120.128 3.26517 117.407 5.2582 114.937C5.76705 114.309 6.36072 113.723 6.95439 113.095L114.535 6.9206C123.483 -1.91328 137.773 -2.29008 147.187 5.7902L258.457 115.648L248.153 125.822L236.916 114.686C235.177 112.927 232.294 112.927 230.513 114.686L230.47 114.602Z" fill="url(#paint0_linear_214_2118)"/>
<path d="M137.392 263.061C132.049 263.061 126.791 261.888 121.744 259.628L108.981 247.068L105.843 244.011L99.3547 237.606L69.6714 207.964C70.3498 208.634 70.9859 209.304 71.6644 209.932C74.6751 212.904 78.3641 215.04 81.9685 217.092C90.2798 221.864 99.3971 224.795 108.684 225.883C112.967 226.427 117.377 226.511 121.66 226.218C128.699 225.799 135.696 224.292 142.353 221.78C145.322 220.65 148.247 219.31 151.131 217.761C156.771 214.663 162.071 210.811 166.863 206.038L211.685 161.785L222.541 151.025L293.102 81.3591L321.514 50.9639C321.514 50.9639 321.641 50.8383 321.683 50.7964L323.21 49.3311C331.903 40.7484 345.939 40.7484 354.632 49.3311L370.703 65.1986C363.833 64.8636 356.879 67.3338 351.663 72.3578L299.039 123.477L298.488 124.105L206.893 213.114L206.766 212.988L173.012 245.728L172.8 245.979C172.8 245.979 171.994 246.9 170.764 248.072C168.093 250.626 162.538 255.441 155.117 258.916C151.767 260.507 148.332 261.637 144.94 262.307C142.947 262.684 140.869 262.977 138.876 263.061H137.349H137.392Z" fill="url(#paint1_linear_214_2118)"/>
<path d="M454.452 178.909L452.756 180.583L299.845 333.899C297.343 336.369 294.714 338.588 291.957 340.598C291.872 340.682 291.745 340.765 291.66 340.849C291.279 341.1 290.897 341.393 290.516 341.644C290.473 341.686 290.431 341.728 290.388 341.77C278.557 350.102 264.097 355 248.45 355C229.156 355 211.643 347.548 198.667 335.365C198.667 335.365 198.653 335.351 198.624 335.323C198.031 334.82 197.437 334.318 196.886 333.774L131.116 268.838C133.194 269.173 135.271 269.299 137.349 269.299H139.088C141.505 269.173 143.922 268.922 146.297 268.42C150.156 267.624 154.099 266.326 157.916 264.526C166.185 260.674 172.376 255.315 175.302 252.468C176.447 251.338 177.295 250.417 177.676 249.998L206.808 221.738L206.936 221.864L307.053 124.607L307.605 123.979L356.243 76.7119C362.773 70.39 372.993 69.5527 380.456 74.6185L454.495 147.718C455.046 148.262 455.597 148.848 456.064 149.434C463.145 158.059 462.594 170.786 454.495 178.783L454.452 178.909Z" fill="url(#paint2_linear_214_2118)"/>
</g>
<defs>
<linearGradient id="paint0_linear_214_2118" x1="230.5" y1="0" x2="230.5" y2="355" gradientUnits="userSpaceOnUse">
<stop stop-color="#F31212"/>
<stop offset="0.773375" stop-color="#F31212" stop-opacity="0"/>
</linearGradient>
<linearGradient id="paint1_linear_214_2118" x1="230.5" y1="0" x2="230.5" y2="355" gradientUnits="userSpaceOnUse">
<stop stop-color="#F31212"/>
<stop offset="0.773375" stop-color="#F31212" stop-opacity="0"/>
</linearGradient>
<linearGradient id="paint2_linear_214_2118" x1="230.5" y1="0" x2="230.5" y2="355" gradientUnits="userSpaceOnUse">
<stop stop-color="#F31212"/>
<stop offset="0.773375" stop-color="#F31212" stop-opacity="0"/>
</linearGradient>
</defs>
</svg>
