<svg width="466" height="358" viewBox="0 0 466 358" fill="none" xmlns="http://www.w3.org/2000/svg">
<g opacity="0.05">
<path d="M232.942 115.57C231.142 117.301 231.142 120.172 232.942 121.946L244.342 133.218L231.656 145.716L195.911 110.25C180.182 94.6289 157.209 89.1824 135.951 95.9377C133.55 96.6977 132.222 99.2731 132.993 101.637C133.765 104.002 136.379 105.311 138.779 104.508C156.737 98.7665 176.11 103.411 189.396 116.584L225.184 152.091L212.498 164.588L176.667 129.039C164.366 116.795 144.222 116.71 131.836 128.87C119.407 140.987 119.364 160.788 131.665 173.032L154.766 196C156.566 197.731 159.48 197.774 161.238 196C163.038 194.227 163.038 191.356 161.238 189.625L138.136 166.657C129.393 157.96 129.436 143.9 138.265 135.287C147.051 126.674 161.366 126.716 170.11 135.414L205.94 171.006L193.082 183.672L193.211 183.503L157.295 147.869C155.537 146.096 152.623 146.096 150.823 147.869C149.066 149.6 149.023 152.513 150.823 154.244L186.782 189.921L186.611 190.089L170.41 206.007L168.695 207.738C163.895 212.466 158.58 216.308 152.966 219.433L118.85 185.53C102.049 168.853 99.6485 142.718 113.149 123.423C114.606 121.354 114.049 118.526 111.949 117.09C109.849 115.697 106.977 116.204 105.563 118.272C89.5765 141.198 92.4052 172.146 112.335 191.905L144.137 223.486C144.137 223.486 144.008 223.57 143.922 223.57C137.279 226.061 130.336 227.581 123.35 228.046C123.264 227.877 123.093 227.708 122.964 227.539L99.6056 204.318C69.7754 174.721 69.9897 126.759 100.034 97.3732C130.079 68.03 178.767 68.1988 208.597 97.7954C210.398 99.5687 213.312 99.6109 215.112 97.8799C216.912 96.1066 216.955 93.2778 215.155 91.5046H215.112C181.725 58.3192 127.207 58.0659 93.5624 90.9979C59.9177 123.888 59.7462 177.592 93.091 210.735L110.235 227.792C110.235 227.792 109.978 227.792 109.892 227.792C100.506 226.695 91.2909 223.739 82.8475 218.926C79.2473 216.899 75.5614 214.746 72.4755 211.749C71.7898 211.115 71.1469 210.44 70.4611 209.764L6.21464 146.391C5.14315 145.209 4.15738 143.9 3.30019 142.507C1.20007 139.003 0 134.949 0 130.601C0 129.925 0 129.25 0.0857191 128.574C0.171438 127.561 0.342876 126.59 0.557174 125.619C0.642893 125.239 0.728613 124.859 0.814332 124.521C0.814332 124.352 0.900051 124.225 0.94291 124.057C1.84296 121.143 3.30019 118.399 5.31459 115.908C5.8289 115.275 6.42893 114.684 7.02897 114.05L115.764 6.97908C124.807 -1.92945 139.251 -2.30943 148.766 5.83913L261.229 116.626L250.814 126.885L239.456 115.655C237.699 113.881 234.785 113.881 232.985 115.655L232.942 115.57Z" fill="url(#paint0_linear_214_2089)"/>
<path d="M138.865 265.284C133.465 265.284 128.15 264.102 123.05 261.822L110.149 249.155L106.978 246.073L100.42 239.614L70.4185 209.721C71.1043 210.397 71.7472 211.073 72.4329 211.706C75.476 214.704 79.2045 216.857 82.8475 218.926C91.248 223.739 100.463 226.694 109.849 227.792C114.178 228.341 118.636 228.425 122.964 228.13C130.079 227.707 137.151 226.188 143.88 223.654C146.88 222.514 149.837 221.163 152.752 219.601C158.452 216.477 163.81 212.592 168.653 207.779L213.955 163.152L224.927 152.302L296.246 82.0467L324.962 51.3945C324.962 51.3945 325.09 51.2679 325.133 51.2257L326.676 49.7479C335.462 41.0927 349.649 41.0927 358.435 49.7479L374.679 65.7495C367.735 65.4118 360.706 67.9028 355.435 72.9692L302.246 124.52L301.689 125.154L209.112 214.915L208.984 214.788L174.867 247.804L174.653 248.058C174.653 248.058 173.839 248.987 172.596 250.169C169.896 252.744 164.281 257.6 156.781 261.104C153.395 262.708 149.923 263.848 146.494 264.524C144.48 264.904 142.38 265.199 140.365 265.284H138.822H138.865Z" fill="url(#paint1_linear_214_2089)"/>
<path d="M459.326 180.42L457.612 182.109L303.06 336.721C300.531 339.212 297.874 341.449 295.088 343.476C295.003 343.56 294.874 343.645 294.788 343.729C294.403 343.983 294.017 344.278 293.631 344.532C293.588 344.574 293.545 344.616 293.503 344.658C281.545 353.06 266.93 358 251.114 358C231.613 358 213.912 350.485 200.797 338.198C200.797 338.198 200.783 338.184 200.754 338.156C200.154 337.65 199.554 337.143 198.997 336.594L132.522 271.11C134.622 271.448 136.722 271.574 138.822 271.574H140.58C143.023 271.448 145.466 271.195 147.866 270.688C151.766 269.886 155.752 268.577 159.609 266.761C167.967 262.877 174.224 257.473 177.182 254.602C178.339 253.462 179.196 252.533 179.582 252.111L209.026 223.612L209.155 223.739L310.346 125.66L310.903 125.027L360.063 77.3601C366.664 70.9848 376.993 70.1404 384.536 75.2491L459.369 148.966C459.926 149.515 460.483 150.106 460.955 150.697C468.112 159.395 467.555 172.23 459.369 180.294L459.326 180.42Z" fill="url(#paint2_linear_214_2089)"/>
</g>
<defs>
<linearGradient id="paint0_linear_214_2089" x1="232.972" y1="0" x2="232.972" y2="358" gradientUnits="userSpaceOnUse">
<stop stop-color="#124EF3"/>
<stop offset="1" stop-color="#124EF3" stop-opacity="0"/>
</linearGradient>
<linearGradient id="paint1_linear_214_2089" x1="232.972" y1="0" x2="232.972" y2="358" gradientUnits="userSpaceOnUse">
<stop stop-color="#124EF3"/>
<stop offset="1" stop-color="#124EF3" stop-opacity="0"/>
</linearGradient>
<linearGradient id="paint2_linear_214_2089" x1="232.972" y1="0" x2="232.972" y2="358" gradientUnits="userSpaceOnUse">
<stop stop-color="#124EF3"/>
<stop offset="1" stop-color="#124EF3" stop-opacity="0"/>
</linearGradient>
</defs>
</svg>
