<svg width="240" height="182" viewBox="0 0 240 182" fill="none" xmlns="http://www.w3.org/2000/svg">
<g opacity="0.2">
<path d="M119.984 58.7536C119.057 59.6336 119.057 61.0932 119.984 61.9947L125.857 67.7256L119.322 74.079L100.911 56.0491C92.8086 48.1074 80.9757 45.3386 70.0259 48.7728C68.7896 49.1592 68.1052 50.4685 68.5026 51.6705C68.9 52.8725 70.2466 53.5378 71.4829 53.13C80.7329 50.2109 90.7113 52.572 97.555 59.2688L115.989 77.32L109.454 83.6734L90.9983 65.6007C84.6624 59.3761 74.2866 59.3331 67.9066 65.5148C61.5044 71.675 61.4824 81.7416 67.8183 87.9662L79.7174 99.6427C80.6446 100.523 82.1457 100.544 83.0509 99.6427C83.9781 98.7412 83.9781 97.2816 83.0509 96.4016L71.1518 84.7251C66.6482 80.3035 66.6703 73.156 71.218 68.7773C75.7436 64.3987 83.1171 64.4201 87.6207 68.8417L106.076 86.9359L99.4535 93.3752L99.5198 93.2893L81.0199 75.1736C80.1147 74.2721 78.6135 74.2721 77.6863 75.1736C76.7812 76.0536 76.7591 77.5347 77.6863 78.4147L96.2083 96.5518L96.12 96.6377L87.7752 104.73L86.8921 105.61C84.4196 108.014 81.6821 109.967 78.7902 111.555L61.2175 94.3196C52.5636 85.8413 51.3273 72.555 58.2813 62.7459C59.0319 61.6942 58.7449 60.2561 57.6632 59.5263C56.5814 58.818 55.1023 59.0756 54.3738 60.1273C46.1394 71.7823 47.5964 87.5155 57.8619 97.5606L74.2424 113.616C74.2424 113.616 74.1762 113.659 74.1321 113.659C70.7102 114.925 67.1339 115.698 63.5355 115.934C63.4913 115.848 63.403 115.762 63.3368 115.676L51.3052 103.871C35.9401 88.8248 36.0505 64.4416 51.526 49.5026C67.0014 34.5851 92.0801 34.6709 107.445 49.7172C108.372 50.6187 109.874 50.6402 110.801 49.7602C111.728 48.8587 111.75 47.4206 110.823 46.5191H110.801C93.6033 29.6483 65.5223 29.5196 48.1925 46.2615C30.8626 62.982 30.7743 90.2843 47.9496 107.134L56.7801 115.805C56.7801 115.805 56.6477 115.805 56.6035 115.805C51.7688 115.247 47.0224 113.745 42.6734 111.298C40.819 110.267 38.9204 109.173 37.3309 107.649C36.9777 107.327 36.6466 106.983 36.2934 106.64L3.20106 74.4224C2.64915 73.8214 2.1414 73.156 1.69987 72.4477C0.618135 70.6662 0 68.6056 0 66.3948C0 66.0514 0 65.708 0.0441525 65.3645C0.088305 64.8494 0.17661 64.3557 0.286991 63.8621C0.331144 63.6689 0.375296 63.4757 0.419449 63.304C0.419449 63.2181 0.463601 63.1537 0.485678 63.0679C0.949279 61.5869 1.69987 60.1917 2.73746 58.9253C3.00237 58.6034 3.31144 58.3029 3.62051 57.9809L59.628 3.54803C64.2861 -0.980892 71.7258 -1.17407 76.6267 2.9685L134.555 59.2902L129.19 64.506L123.34 58.7965C122.435 57.8951 120.934 57.8951 120.007 58.7965L119.984 58.7536Z" fill="url(#paint0_linear_214_2051)"/>
<path d="M71.5272 134.865C68.7456 134.865 66.0081 134.264 63.3811 133.105L56.7361 126.666L55.1025 125.099L51.7248 121.815L36.2714 106.618C36.6246 106.962 36.9558 107.305 37.309 107.627C38.8764 109.151 40.7969 110.246 42.6734 111.298C47.0003 113.745 51.7469 115.247 56.5816 115.805C58.8113 116.084 61.1072 116.127 63.3369 115.977C67.0016 115.762 70.6442 114.989 74.1101 113.701C75.6555 113.122 77.1787 112.435 78.6799 111.641C81.6161 110.052 84.3756 108.078 86.8702 105.631L110.205 82.9434L115.856 77.4271L152.591 41.7109L167.382 26.128C167.382 26.128 167.449 26.0636 167.471 26.0421L168.265 25.2909C172.791 20.8907 180.098 20.8907 184.624 25.2909L192.991 33.4257C189.414 33.254 185.794 34.5204 183.079 37.0961L155.682 63.3037L155.395 63.6257L107.71 109.258L107.644 109.194L90.0713 125.979L89.9609 126.108C89.9609 126.108 89.5414 126.58 88.9012 127.181C87.5104 128.49 84.6184 130.958 80.7551 132.74C79.0111 133.556 77.2229 134.135 75.4568 134.479C74.4192 134.672 73.3375 134.822 72.2999 134.865H71.5051H71.5272Z" fill="url(#paint1_linear_214_2051)"/>
<path d="M236.591 91.7221L235.708 92.5807L156.101 171.182C154.799 172.448 153.43 173.586 151.995 174.616C151.951 174.659 151.885 174.702 151.841 174.745C151.642 174.874 151.443 175.024 151.245 175.153C151.222 175.174 151.2 175.196 151.178 175.217C145.019 179.489 137.491 182 129.345 182C119.3 182 110.183 178.179 103.427 171.933C103.427 171.933 103.42 171.926 103.405 171.912C103.096 171.654 102.787 171.397 102.5 171.118L68.2599 137.827C69.3416 137.999 70.4233 138.063 71.5051 138.063H72.4102C73.6686 137.999 74.9269 137.87 76.1632 137.612C78.1721 137.204 80.2252 136.539 82.2121 135.616C86.5169 133.641 89.7401 130.894 91.2633 129.434C91.8594 128.855 92.3009 128.383 92.4996 128.168L107.666 113.68L107.732 113.744L159.854 63.8832L160.141 63.5613L185.463 39.3283C188.862 36.0873 194.183 35.658 198.068 38.2551L236.613 75.7314C236.9 76.0104 237.187 76.3109 237.43 76.6114C241.117 81.033 240.83 87.5581 236.613 91.6577L236.591 91.7221Z" fill="url(#paint2_linear_214_2051)"/>
</g>
<defs>
<linearGradient id="paint0_linear_214_2051" x1="120" y1="0" x2="120" y2="182" gradientUnits="userSpaceOnUse">
<stop stop-color="white"/>
<stop offset="0.743209" stop-color="white" stop-opacity="0"/>
</linearGradient>
<linearGradient id="paint1_linear_214_2051" x1="120" y1="0" x2="120" y2="182" gradientUnits="userSpaceOnUse">
<stop stop-color="white"/>
<stop offset="0.743209" stop-color="white" stop-opacity="0"/>
</linearGradient>
<linearGradient id="paint2_linear_214_2051" x1="120" y1="0" x2="120" y2="182" gradientUnits="userSpaceOnUse">
<stop stop-color="white"/>
<stop offset="0.743209" stop-color="white" stop-opacity="0"/>
</linearGradient>
</defs>
</svg>
