<svg width="20" height="22" viewBox="0 0 20 22" fill="none" xmlns="http://www.w3.org/2000/svg">
<path d="M3 0C3.47138 0 3.87856 0.329213 3.97754 0.790039L4.66602 4L20 4V6H18.5752L17.2393 13.5713C17.1641 13.9969 16.8243 14.3264 16.3965 14.3877L6.68066 15.7754L5.96191 16.8262C6.21947 17.0888 6.42633 17.4013 6.5625 17.75H12.4375C12.8375 16.7257 13.834 16 15 16C16.5188 16 17.75 17.2312 17.75 18.75C17.75 20.2688 16.5188 21.5 15 21.5C13.834 21.5 12.8375 20.7743 12.4375 19.75H6.5625C6.16246 20.7743 5.16599 21.5 4 21.5C2.48122 21.5 1.25 20.2688 1.25 18.75C1.25 17.2312 2.48122 16 4 16C4.03403 16 4.06783 16.0027 4.10156 16.0039L4.93262 14.79L2.19141 2L0 2L0 0L3 0ZM4 17.833C3.49374 17.833 3.08301 18.2437 3.08301 18.75C3.08301 19.2563 3.49374 19.667 4 19.667C4.50626 19.667 4.91699 19.2563 4.91699 18.75C4.91699 18.2437 4.50626 17.833 4 17.833ZM15 17.833C14.4937 17.833 14.083 18.2437 14.083 18.75C14.083 19.2563 14.4937 19.667 15 19.667C15.5063 19.667 15.917 19.2563 15.917 18.75C15.917 18.2437 15.5063 17.833 15 17.833Z" fill="white"/>
</svg>
