<svg width="20" height="22" viewBox="0 0 20 22" fill="none" xmlns="http://www.w3.org/2000/svg">
<path d="M8.89551 0.630331C9.11861 0.512129 9.97674 0 9.97674 0C9.97674 0 10.8349 0.512129 11.058 0.630331C11.5044 0.866871 12.1549 1.18939 12.9618 1.5278C14.58 2.20643 16.8049 2.93953 19.2624 3.18313L19.9535 3.25164V10.0261C19.9535 14.1619 17.447 17.1464 15.0628 19.0502C13.8633 20.008 12.6679 20.7153 11.7739 21.183C11.326 21.4173 9.97674 22 9.97674 22C9.97674 22 8.62749 21.4173 8.17958 21.183C7.2856 20.7153 6.09014 20.008 4.89065 19.0502C2.50652 17.1464 0 14.1619 0 10.0261V3.25164L0.691079 3.18313C3.14854 2.93953 5.37351 2.20643 6.99167 1.5278C7.79858 1.18939 8.44906 0.866871 8.89551 0.630331Z" fill="white"/>
</svg>
