<svg width="19" height="23" viewBox="0 0 19 23" fill="none" xmlns="http://www.w3.org/2000/svg">
<path d="M13.8014 0C13.8549 0 13.9085 0 13.965 0C14.0963 1.62201 13.4772 2.83397 12.7248 3.71163C11.9865 4.58323 10.9755 5.42858 9.34038 5.30031C9.2313 3.70153 9.85142 2.57946 10.6028 1.70382C11.2997 0.887762 12.5773 0.161595 13.8014 0Z" fill="white"/>
<path d="M18.7511 16.8826C18.7511 16.8987 18.7511 16.9129 18.7511 16.928C18.2915 18.3198 17.6361 19.5125 16.8362 20.6195C16.106 21.6244 15.2111 22.9767 13.6134 22.9767C12.2327 22.9767 11.3157 22.089 9.90072 22.0647C8.40394 22.0405 7.58082 22.8071 6.21231 23C6.05577 23 5.89922 23 5.74571 23C4.74079 22.8545 3.92978 22.0587 3.33895 21.3416C1.59676 19.2227 0.250472 16.4857 0 12.9831C0 12.6397 0 12.2973 0 11.9539C0.106047 9.4472 1.32407 7.40908 2.94305 6.42134C3.79748 5.89615 4.97207 5.44874 6.27998 5.64871C6.84051 5.73557 7.41316 5.92746 7.91512 6.11734C8.39081 6.30014 8.98568 6.62434 9.54925 6.60717C9.93101 6.59606 10.3108 6.3971 10.6956 6.25671C11.8227 5.84969 12.9276 5.38309 14.384 5.60225C16.1342 5.86686 17.3765 6.64454 18.1441 7.84438C16.6635 8.78668 15.4929 10.2067 15.6929 12.6316C15.8706 14.8344 17.1513 16.1231 18.7511 16.8826Z" fill="white"/>
</svg>
