<svg width="119" height="36" viewBox="0 0 119 36" fill="none" xmlns="http://www.w3.org/2000/svg">
<path d="M25.843 11.7388L22.4183 15.1714L22.247 15.3431L21.1597 16.4329L20.3549 17.2482L19.2675 18.3381L19.0963 18.5011L18.6254 18.9817L18.4541 19.1448L16.8531 20.7495L16.6818 20.9126C16.2139 21.3809 15.6838 21.7823 15.1064 22.1054C14.8309 22.2599 14.5448 22.3947 14.2503 22.5088C13.5871 22.7664 12.8882 22.9198 12.1783 22.9636C11.7482 23.0022 11.3155 23.0022 10.8855 22.9636C9.94635 22.8613 9.03765 22.5694 8.21416 22.1054C7.84126 21.912 7.49575 21.6695 7.18674 21.3846L6.98982 21.1872L0.748234 14.8711L0.619807 14.7423C0.508636 14.6218 0.411016 14.4895 0.328704 14.3476C0.114534 13.9837 0.00214467 13.5687 0.0033539 13.1461C-0.00111797 13.0804 -0.00111797 13.0145 0.0033539 12.9488C0.0033539 12.8458 0.0033539 12.7428 0.0033539 12.6484V12.5368C0.0870421 12.2249 0.232642 11.933 0.431446 11.6787C0.483981 11.6118 0.541205 11.5487 0.602683 11.4899L0.713987 11.3783L7.43503 4.72751L11.4591 0.702689C11.8873 0.272801 12.4625 0.0221083 13.0682 0.00139382C13.6738 -0.0193206 14.2647 0.191492 14.7212 0.591127L25.843 11.7388Z" fill="#005BAA"/>
<path d="M13.7456 26.7051C13.204 26.7031 12.6694 26.583 12.1787 26.3532L10.903 25.0831L10.5862 24.7742L10.5349 24.7141L9.9441 24.122L6.97314 21.1098L7.17006 21.3072C7.48119 21.5958 7.82964 21.8412 8.20605 22.0366C9.02953 22.5006 9.93823 22.7925 10.8773 22.8948C11.3074 22.9334 11.7401 22.9334 12.1702 22.8948C12.8801 22.851 13.579 22.6976 14.2421 22.44C14.5367 22.3259 14.8228 22.1911 15.0983 22.0366C15.6757 21.7135 16.2058 21.3121 16.6737 20.8438L16.8449 20.6807L18.446 19.076L18.6172 18.9129L19.0881 18.4323L19.2594 18.2693L20.3467 17.1794L21.1516 16.3641L22.2646 15.3343L22.4358 15.1627L29.3281 8.29735L32.1535 5.14786L32.3076 5.00197C32.7249 4.58536 33.2898 4.35144 33.8787 4.35144C34.4677 4.35144 35.0326 4.58536 35.4498 5.00197L37.0081 6.56384H37.0595C36.7098 6.54922 36.3608 6.60638 36.0339 6.73181C35.7071 6.85725 35.4093 7.04832 35.1587 7.29329L29.8932 12.4423L29.8418 12.5024L20.6978 21.6333L17.3158 24.9544L17.1104 25.169C16.6501 25.6168 16.1211 25.9877 15.5435 26.2674C15.2224 26.4236 14.883 26.5389 14.5332 26.6107C14.333 26.6527 14.1297 26.6786 13.9254 26.6879L13.7456 26.7051Z" fill="#ED1C24"/>
<path d="M45.4499 18.1664L45.2786 18.338L37.8213 25.9242L29.9701 33.8966C29.7261 34.1434 29.4627 34.3701 29.1824 34.5746L29.0711 34.6518C27.7062 35.6293 26.0442 36.0998 24.3708 35.9823C22.6973 35.8649 21.117 35.1668 19.9013 34.0082L19.6958 33.888L18.3516 32.5407L14.5587 28.739L13.2916 27.4603L13.1204 27.2801C13.3241 27.3143 13.5303 27.3315 13.7368 27.3316H13.9166C14.1586 27.3213 14.3993 27.2897 14.6358 27.2372C15.0368 27.1575 15.4255 27.0248 15.7916 26.8424C16.4225 26.5286 17.0004 26.1174 17.504 25.6238L17.7352 25.375L20.6462 22.5087L30.655 12.6397L30.7064 12.5711L35.6209 7.79966C35.9401 7.49293 36.3542 7.3045 36.7947 7.26549C37.2353 7.22648 37.6759 7.33923 38.0439 7.58512L39.1912 8.74365L45.4413 15.0169C45.4971 15.0699 45.5486 15.1273 45.5954 15.1885C45.9436 15.6147 46.1215 16.1553 46.0947 16.7055C46.0678 17.2557 45.838 17.7763 45.4499 18.1664Z" fill="#ED1C24"/>
<path d="M21.2883 9.85927C21.1998 9.9413 21.0836 9.98685 20.963 9.98685C20.8424 9.98685 20.7262 9.9413 20.6376 9.85927C19.9344 9.14985 19.0985 8.58621 18.1779 8.20055C17.2573 7.81489 16.27 7.61475 15.2722 7.61156C13.2571 7.60513 11.322 8.4013 9.89253 9.82495C8.46309 11.2486 7.65644 13.1831 7.65002 15.2029C7.64359 17.2226 8.43793 19.1622 9.85828 20.595L12.17 22.9292C12.1724 22.9463 12.1724 22.9636 12.17 22.9807C11.7513 23.0194 11.33 23.0194 10.9114 22.9807L9.19902 21.2643C7.6095 19.6598 6.72103 17.488 6.72905 15.2268C6.73708 12.9656 7.64095 10.8003 9.24183 9.20706C10.8427 7.61386 13.0094 6.72333 15.2654 6.73137C17.5213 6.73942 19.6817 7.64539 21.2712 9.24997C21.3488 9.33139 21.3935 9.43877 21.3967 9.55132C21.3998 9.66387 21.3612 9.7736 21.2883 9.85927Z" fill="#009EDB"/>
<path d="M24.8331 12.7771L24.191 13.4121L23.0694 12.2794C23.0272 12.2371 22.9937 12.1869 22.9709 12.1317C22.948 12.0765 22.9363 12.0173 22.9363 11.9575C22.9363 11.8978 22.948 11.8386 22.9709 11.7834C22.9937 11.7281 23.0272 11.678 23.0694 11.6357C23.1115 11.5934 23.1616 11.5599 23.2167 11.537C23.2718 11.5141 23.3308 11.5023 23.3904 11.5023C23.4501 11.5023 23.5091 11.5141 23.5642 11.537C23.6193 11.5599 23.6694 11.5934 23.7115 11.6357L24.8331 12.7771Z" fill="#009EDB"/>
<path d="M15.1411 22.0881C14.8659 22.2409 14.5797 22.3728 14.285 22.4829L11.1342 19.3248C10.1788 18.3603 9.58935 17.0918 9.46743 15.7382C9.34551 14.3845 9.69881 13.0307 10.4664 11.9103C10.5356 11.8115 10.6405 11.7436 10.7588 11.7212C10.8771 11.6988 10.9995 11.7235 11.0999 11.7901C11.149 11.8244 11.1908 11.868 11.2229 11.9185C11.255 11.9691 11.2769 12.0254 11.2873 12.0845C11.2976 12.1435 11.2962 12.2039 11.2832 12.2624C11.2701 12.3209 11.2457 12.3762 11.2113 12.4252C10.5642 13.3708 10.2666 14.5132 10.3698 15.6552C10.473 16.7972 10.9704 17.8674 11.7763 18.6812L15.1411 22.0881Z" fill="#009EDB"/>
<path d="M22.9152 14.6736L22.4443 15.1456L22.2902 15.3001L18.7542 11.7215C18.1071 11.07 17.291 10.613 16.3983 10.4022C15.5056 10.1914 14.5719 10.2352 13.7027 10.5286C13.6446 10.5556 13.5815 10.5699 13.5176 10.5707C13.4536 10.5714 13.3902 10.5586 13.3315 10.5331C13.2728 10.5076 13.2202 10.4699 13.1771 10.4226C13.1339 10.3752 13.1012 10.3193 13.0812 10.2584C13.0612 10.1975 13.0542 10.1331 13.0607 10.0693C13.0673 10.0055 13.0872 9.94382 13.1192 9.8883C13.1512 9.83278 13.1946 9.78468 13.2464 9.74713C13.2983 9.70959 13.3575 9.68347 13.4201 9.67047C14.445 9.33368 15.5433 9.29019 16.5915 9.54489C17.6397 9.79959 18.5963 10.3424 19.3535 11.1122L22.9152 14.6736Z" fill="#009EDB"/>
<path d="M21.023 16.5787L20.3808 17.2223L16.8277 13.6352C16.3997 13.2835 15.8563 13.1043 15.3036 13.1324C14.7508 13.1605 14.2284 13.3941 13.8381 13.7874C13.4478 14.1807 13.2177 14.7056 13.1927 15.2598C13.1676 15.8139 13.3494 16.3576 13.7026 16.7847L15.9886 19.0931C16.0738 19.1785 16.1216 19.2942 16.1216 19.4149C16.1216 19.5356 16.0738 19.6514 15.9886 19.7368C15.9035 19.8221 15.788 19.8701 15.6675 19.8701C15.5471 19.8701 15.4316 19.8221 15.3465 19.7368L13.0177 17.4283C12.4743 16.8272 12.1832 16.0392 12.205 15.2284C12.2268 14.4176 12.5599 13.6465 13.1349 13.0757C13.7099 12.5049 14.4824 12.1785 15.2915 12.1644C16.1006 12.1503 16.884 12.4497 17.4784 13.0001L21.023 16.5787Z" fill="#009EDB"/>
<path d="M19.1222 18.4753L18.6513 18.9559L18.4972 19.1018L14.9269 15.5318C14.8418 15.4465 14.7939 15.3307 14.7939 15.21C14.7939 15.0893 14.8418 14.9735 14.9269 14.8882C15.0121 14.8028 15.1276 14.7549 15.248 14.7549C15.3684 14.7549 15.4839 14.8028 15.5691 14.8882L19.1222 18.4753Z" fill="#009EDB"/>
<path fill-rule="evenodd" clip-rule="evenodd" d="M108.465 18.2779L103.174 10.6745L102.643 10.1854H107.883L111.419 15.9265L111.702 15.6948L113.833 12.511C114.101 12.1632 114.22 11.7237 114.165 11.2881C114.111 10.8526 113.887 10.4562 113.542 10.1854H118.465L112.772 18.2693V24.1392L113.774 25.3406H107.626L108.482 24.1564C108.482 22.2083 108.414 20.2259 108.482 18.2779H108.465ZM94.107 10.1854C94.4463 10.5376 94.6574 10.994 94.7063 11.4812C94.74 11.7721 94.7017 12.0668 94.595 12.3394L90.6651 23.7702C90.4052 24.3445 90.0223 24.8543 89.5435 25.2634H93.8244C93.51 25.0051 93.2976 24.6431 93.2251 24.2422C93.1478 23.9614 93.1478 23.6648 93.2251 23.384L94.0813 20.6722H99.0728L99.8519 22.7661C99.9305 22.9757 99.9795 23.1952 99.9975 23.4183C100.048 23.7746 100.001 24.138 99.8607 24.4692C99.7203 24.8005 99.4923 25.087 99.2012 25.2977H105.922C105.26 24.7632 104.715 24.097 104.321 23.3411L99.4067 10.1424L94.107 10.1854ZM98.3879 18.767H94.8176L96.5299 13.824L98.3707 18.767H98.3879ZM80.4851 10.1939H87.9767C89.0637 10.1962 90.1055 10.63 90.8741 11.4004C91.6427 12.1708 92.0755 13.2151 92.0778 14.3046V14.8109C92.0644 15.89 91.629 16.9207 90.8652 17.6814C90.1015 18.4421 89.0704 18.8719 87.9938 18.8786L86.1188 18.9387C86.821 18.5547 87.3858 17.9603 87.7343 17.2386C88.0828 16.5169 88.1975 15.7041 88.0623 14.9139C87.9167 13.6438 87.266 12.4252 86.1787 12.3994H85.4937V23.65C85.4906 23.8309 85.5445 24.0081 85.6478 24.1564C85.8532 24.479 86.0821 24.7859 86.3328 25.0746L86.5297 25.3149H80.7077L80.956 24.9802C81.1384 24.7394 81.2907 24.4771 81.4097 24.1993C81.4849 24.0382 81.523 23.8622 81.521 23.6844V11.5756C81.4954 10.9405 80.8703 10.5801 80.4851 10.1939Z" fill="#005BAA"/>
<path fill-rule="evenodd" clip-rule="evenodd" d="M48.9345 10.1167H53.635L57.582 21.4531L60.9297 12.0648C60.9907 11.791 60.9415 11.5042 60.7927 11.2667C60.6129 10.8805 60.416 10.5115 60.2276 10.1339H63.738C63.5325 10.8976 63.2243 11.7386 62.9588 12.511L58.4211 25.744C57.0587 25.5255 55.7839 24.9312 54.7395 24.0276C54.0379 23.271 53.5296 22.3552 53.2583 21.3587L49.4654 11.2409C49.3146 10.8543 49.1372 10.4787 48.9345 10.1167ZM67.7021 15.4459V23.5471C67.7021 23.8732 67.7792 23.9332 67.9846 24.1993L68.9093 25.4093H64.4828L65.2277 24.2679C65.4104 24.0461 65.5076 23.766 65.5017 23.4784V12.142L64.2602 10.1167H68.8494L76.2725 19.7368V12.0991C76.2806 11.81 76.1866 11.5274 76.0071 11.301C75.7588 10.9148 75.4934 10.5458 75.2451 10.1682H79.6287L78.7726 11.3439C78.5671 11.6013 78.49 11.6614 78.49 11.9961V25.744C77.5932 25.6974 76.717 25.4579 75.9207 25.0418C75.1244 24.6257 74.4268 24.0428 73.8752 23.3325L67.7021 15.4459Z" fill="#ED1C24"/>
</svg>
